<svg width="376" height="152" viewBox="0 0 376 152" fill="none" xmlns="http://www.w3.org/2000/svg">
<path d="M360.154 147H317.086V50.8739L286.228 89.5019H375.028V121.914H256.258V83.9519L321.526 4.25391H360.154V147Z" fill="#F5F5F5"/>
<path d="M185.847 151.218C167.199 151.218 152.621 144.558 142.113 131.238C131.605 117.918 126.351 99.4181 126.351 75.7381C126.351 51.9101 131.605 33.3361 142.113 20.0161C152.621 6.69613 167.199 0.0361328 185.847 0.0361328C204.495 0.0361328 219.073 6.69613 229.581 20.0161C240.089 33.3361 245.343 51.9101 245.343 75.7381C245.343 99.4181 240.089 117.918 229.581 131.238C219.073 144.558 204.495 151.218 185.847 151.218ZM185.847 115.698C190.879 115.698 194.653 112.294 197.169 105.486C199.833 98.6781 201.165 88.7621 201.165 75.7381C201.165 62.5661 199.833 52.5761 197.169 45.7681C194.653 38.9601 190.879 35.5561 185.847 35.5561C180.815 35.5561 176.967 38.9601 174.303 45.7681C171.787 52.5761 170.529 62.5661 170.529 75.7381C170.529 88.7621 171.787 98.6781 174.303 105.486C176.967 112.294 180.815 115.698 185.847 115.698Z" fill="#F5F5F5"/>
<path d="M104.334 147H61.2665V50.8739L30.4085 89.5019H119.208V121.914H0.438477V83.9519L65.7065 4.25391H104.334V147Z" fill="#F5F5F5"/>
</svg>
